<svg fill="none" height="93" viewBox="0 0 157 93" width="157" xmlns="http://www.w3.org/2000/svg"><g fill="#000"><path d="m0 5.93293h10.42v28.10247h7.1129v-28.10247h10.42v-5.93293h-27.9529z"/><path d="m39.319 34.534c7.7444 0 12.5639-5.3015 12.5639-13.1622 0-7.9105-4.8195-13.19533-12.5639-13.19533s-12.5638 5.28483-12.5638 13.19533c0 7.8607 4.8194 13.1622 12.5638 13.1622zm.0332-5.4843c-3.573 0-5.4011-3.2739-5.4011-7.7277 0-4.4539 1.8281-7.7444 5.4011-7.7444 3.5066 0 5.3347 3.2905 5.3347 7.7444 0 4.4538-1.8281 7.7277-5.3347 7.7277z"/><path d="m67.0838 34.534c7.7444 0 12.5638-5.3015 12.5638-13.1622 0-7.9105-4.8194-13.19533-12.5638-13.19533s-12.5639 5.28483-12.5639 13.19533c0 7.8607 4.8195 13.1622 12.5639 13.1622zm.0332-5.4843c-3.573 0-5.4011-3.2739-5.4011-7.7277 0-4.4539 1.8281-7.7444 5.4011-7.7444 3.5066 0 5.3347 3.2905 5.3347 7.7444 0 4.4538-1.8281 7.7277-5.3347 7.7277z"/><path d="m90.3947 0h-7.0796v34.0354h7.0796z"/><path d="m116.369 15.7879c-.632-4.7031-4.421-7.61143-10.869-7.61143-6.5311 0-10.8354 3.02463-10.8188 7.94383-.0166 3.8223 2.3931 6.2985 7.3788 7.2956l4.421.8808c2.226.4488 3.24 1.2631 3.273 2.5427-.033 1.5123-1.678 2.5926-4.154 2.5926-2.526 0-4.205-1.0803-4.637-3.1576l-6.9632.3656c.6648 4.8859 4.8195 7.894 11.5832 7.894 6.614 0 11.351-3.3737 11.367-8.4092-.016-3.6894-2.426-5.8997-7.378-6.9134l-4.62-.9307c-2.377-.5152-3.258-1.3295-3.241-2.5593-.017-1.5289 1.712-2.526 3.905-2.526 2.46 0 3.922 1.3461 4.271 2.9914z"/><path d="m22.6973 48.0291-1.4039-1.4039h-.7488s-.8892 1.8719-6.1774 9.3129c-1.0764-1.0296-2.2463-1.4976-3.2291-1.4976-5.84985 0-11.1381 7.3942-11.1381 14.9288 0 7.3006 4.72666 12.3549 12.8228 12.3549 10.3893 0 17.4559-9.3598 18.3919-21.387 1.9188 1.1699 3.3695 2.0591 5.1947 2.1059 3.4163.1404 7.1602-3.4163 7.1602-7.441 0-1.1231-.6552-2.6675-2.5272-2.7143-.6084 0-1.2167.0936-1.7783.4212.5616 1.0764 1.2635 3.0887 1.2167 4.6799-.0468 1.3571-.4211 2.0591-1.4039 2.0123-1.0764-.0468-1.9188-.5148-5.5691-2.9015-1.4039-.8892-3.0887-2.0124-5.2882-2.106-5.4287-.1872-8.143 5.2415-8.143 8.2834 0 3.3227 1.5444 3.8375 2.2464 3.8375 1.2635 0 2.0123-.936 2.9951-2.0591-1.1232-.7956-2.9951-1.7316-2.9951-3.8375 0-1.2636.8891-2.9484 2.9951-2.9484 1.5911 0 2.8547.8892 4.3055 1.7316-.9828 9.7809-6.9263 18.3919-15.584 18.3919-4.67987 0-8.33016-2.1996-10.01492-5.8499zm-19.74898 18.7663c0-6.8326 3.55669-9.4065 5.75623-9.4065 2.05915 0 2.76115 1.8719 2.33995 3.0887l-7.6282 9.8277c-.32759-1.0764-.46798-2.2464-.46798-3.5099z"/><path d="m69.4562 80.9754c4.633 0 7.7685-1.4508 10.1553-2.1996l2.5271-8.4237h-1.6848l-4.633 7.1602c-1.3572.7488-3.1823 1.4507-5.7563 1.4507-5.803 0-9.6873-3.7907-9.7341-12.0272-.0468-7.6282 5.3351-16.5199 13.8056-16.5199 2.8547 0 4.6799.9827 5.9435 2.0123l1.3103 6.7858h1.638l.7955-8.3302c-2.4803-1.4039-4.9606-2.4803-8.5641-2.4803-13.1036 0-20.0766 9.7809-20.0766 18.2047 0 9.8745 6.4114 14.3672 14.2736 14.3672z"/><path d="m86.0485 80.2266.6084.6084 3.3695-.9828c1.3103-4.5863 1.9187-5.8498 3.0887-8.3302 2.2931-4.867 4.8202-9.1725 6.8326-10.1553 1.0293.0936 1.2633 1.5444.4683 2.9016h1.591c.749-.6552 2.34-2.6208 2.34-4.5863 0-1.4508-.983-2.1995-2.247-2.1995-3.8371 0-6.2706 4.5862-10.2017 13.5248h-.6552l2.4804-8.4238c.7955-2.8079.6551-5.101-1.7784-5.101-2.6675 0-5.1478 3.0419-5.1478 3.0419v.234l3.7439.7019s-1.1232 5.4287-3.0888 13.2441z"/><path d="m121.584 57.2017-.421 1.5911c-.796-.5148-1.966-.8892-3.323-.8892-6.505 0-15.256 9.8278-15.116 18.5323.047 2.4803 1.404 4.3991 3.791 4.3991 4.68 0 8.424-7.2538 10.623-10.2489h.141l-1.404 4.8202c-1.17 3.6503-.188 5.2883 1.965 5.2883 2.106 0 5.99-3.6971 7.394-7.675l-.936-.2808c-1.076 1.872-2.995 3.9779-5.054 4.5863l-.14-.0468 5.335-20.0766zm-12.87 20.1234c-1.17 0-1.544-1.0296-1.544-2.3867 0-7.1602 5.803-15.1628 9.36-15.1628 1.31 0 2.386.7956 3.229 1.8719l-.562 1.7784c-1.216 3.9311-7.534 13.8992-10.483 13.8992z"/><path d="m128.855 60.7584h4.025l-4.493 22.2761c-.889 4.4459-1.685 7.0198-3.416 7.0198-1.311 0-2.995-1.5911-4.212-2.7143-.609.4212-1.17 1.4975-1.17 2.3399 0 1.7784 1.919 2.6675 3.089 2.6675 2.106 0 8.002-1.5911 10.342-12.8696l3.604-17.2687c.093-.5148.187-.9828.327-1.4507h6.037l.468-2.0592h-6.037c2.527-9.8745 5.008-10.9041 6.224-10.9041 1.919 0 4.165 1.4508 5.616 2.9951.515-.6551 1.451-1.7783 1.451-2.9951 0-1.2167-1.825-2.5271-4.072-2.5271-5.569 0-11.138 5.8966-13.244 13.4312h-4.258z"/><path d="m142.96 60.7584h3.651l-3.931 15.9115c-.562 2.3867.421 4.0715 2.106 4.0715 2.714 0 8.096-5.1479 9.687-8.7514l-.936-.3276c-1.264 1.8252-4.306 4.4927-6.739 5.3819l-.187-.1404 3.837-16.1455h6.271l.281-2.0592h-6.131l1.404-5.803h-2.901l-2.153 5.803h-3.978z"/></g></svg>